# Blender v2.83.4 OBJ File: 'spl-goalpost-v1.blend'
# www.blender.org
mtllib spl-goalpost-back-v3.mtl
o GoalPost_back_Cylinder.002
v -4.600000 7.800000 7.549999
v -4.600000 0.200000 7.549999
v -4.590393 8.000000 7.847545
v -4.590393 0.000000 7.847545
v -4.590393 8.000000 -8.347546
v -4.590393 0.000000 -8.347546
v -4.600000 7.800000 -8.050001
v -4.600000 0.200000 -8.050000
v -4.500000 7.800000 -8.050001
v -4.490393 8.000000 7.847545
v -4.500000 7.800000 7.549999
v -4.500000 0.200000 -8.050000
v -4.490393 8.000000 -8.347546
v -4.490393 0.000000 -8.347546
v -4.500000 0.200000 7.549999
v -4.490393 0.000000 7.847545
v -4.500000 8.000000 7.749999
v -4.500000 0.000000 7.749999
v -4.500000 8.000000 -8.250001
v -4.500000 0.000000 -8.250001
v -4.600000 8.000000 7.749999
v -4.600000 0.000000 7.749999
v -4.600000 8.000000 -8.250001
v -4.600000 0.000000 -8.250001
vt -0.689873 0.326645
vt -0.689873 1.588170
vt 1.714349 1.588170
vt 1.714349 0.326645
vt 0.250000 1.000000
vt 0.218750 1.000000
vt 0.218750 1.000000
vt 0.250000 1.000000
vt 0.510000 0.250000
vt 0.514612 0.296822
vt 0.514611 0.203179
vt 0.281250 1.000000
vt 0.250000 1.000000
vt 0.510000 0.250000
vt 0.281250 0.500000
vt 0.281250 1.000000
vt 0.281250 0.500000
vt 0.250000 1.000000
vt 0.514612 0.296822
vt 0.510000 0.250000
vt 0.218750 0.500000
vt 0.218750 0.500000
vt 0.510000 0.250000
vt 0.514611 0.203179
vt 0.250000 0.512500
vt 0.250000 0.987500
vt 0.250000 0.500000
vt 0.250000 0.987500
vt 0.250000 0.512500
vt 0.250000 0.500000
vt 0.256500 0.981250
vt 0.503500 0.268750
vt 0.503500 0.268750
vt 0.256500 0.981250
vn 1.0000 0.0000 0.0000
vn 0.0000 1.0000 0.0000
vn -0.9952 0.0000 -0.0980
vn -0.9952 0.0000 0.0980
vn 0.0000 0.0000 1.0000
vn 0.0000 -1.0000 0.0000
vn 0.0000 0.0000 -1.0000
vn -1.0000 0.0000 0.0000
usemtl Net
s off
f 12/1/1 9/2/1 11/3/1 15/4/1
usemtl Material.001
f 19/5/2 13/6/2 5/7/2 23/8/2
f 24/9/3 23/8/3 5/7/3 6/10/3
f 4/11/4 3/12/4 21/13/4 22/14/4
f 16/15/5 10/16/5 3/12/5 4/17/5
f 10/16/2 17/18/2 21/13/2 3/12/2
f 14/19/6 20/20/6 24/9/6 6/10/6
f 13/6/7 14/21/7 6/22/7 5/7/7
f 18/23/6 16/24/6 4/11/6 22/14/6
f 19/5/2 23/8/2 21/13/2 17/18/2
f 24/9/6 20/20/6 18/23/6 22/14/6
f 15/25/1 11/26/1 17/18/1 18/27/1
f 9/28/1 12/29/1 20/30/1 19/5/1
f 1/31/8 2/32/8 22/14/8 21/13/8
f 8/33/8 7/34/8 23/8/8 24/9/8
f 11/26/1 9/28/1 19/5/1 17/18/1
f 7/34/8 1/31/8 21/13/8 23/8/8
f 2/32/8 8/33/8 24/9/8 22/14/8
f 12/29/1 15/25/1 18/27/1 20/30/1
