# Blender v2.83.4 OBJ File: 'spl-goalpost-v1.blend'
# www.blender.org
mtllib spl-goalpost-v2.mtl
o GoalPost_Cylinder.003
v 0.000000 0.000000 -8.750000
v 0.000000 8.000000 -8.750000
v 0.097545 0.000000 -8.740393
v 0.097545 8.000000 -8.740393
v 0.191342 0.000000 -8.711940
v 0.191342 8.000000 -8.711940
v 0.277785 0.000000 -8.665735
v 0.277785 8.000000 -8.665735
v 0.353553 0.000000 -8.603554
v 0.353553 8.000000 -8.603554
v 0.415735 0.000000 -8.527785
v 0.415735 8.000000 -8.527785
v 0.461940 0.000000 -8.441341
v 0.461940 8.000000 -8.441341
v 0.490393 0.000000 -8.347546
v 0.490393 8.000000 -8.347546
v 0.500000 0.000000 -8.250000
v 0.500000 8.000000 -8.250000
v 0.490393 0.000000 -8.152455
v 0.490393 8.000000 -8.152455
v 0.461940 0.000000 -8.058659
v 0.461940 8.000000 -8.058659
v 0.415735 0.000000 -7.972215
v 0.415735 8.000000 -7.972215
v 0.353553 0.000000 -7.896447
v 0.353553 8.000000 -7.896447
v 0.277785 0.000000 -7.834265
v 0.277785 8.000000 -7.834265
v 0.191342 0.000000 -7.788060
v 0.191342 8.000000 -7.788060
v 0.097545 0.000000 -7.759607
v 0.097545 8.000000 -7.759607
v -0.000000 0.000000 -7.750000
v -0.000000 8.000000 -7.750000
v -0.097545 0.000000 -7.759607
v -0.097545 8.000000 -7.759607
v -0.191342 0.000000 -7.788061
v -0.191342 8.000000 -7.788061
v -0.277785 0.000000 -7.834266
v -0.277785 8.000000 -7.834266
v -0.353554 0.000000 -7.896447
v -0.353554 8.000000 -7.896447
v -0.415735 0.000000 -7.972215
v -0.415735 8.000000 -7.972215
v -0.461940 0.000000 -8.058659
v -0.461940 8.000000 -8.058659
v -0.490393 0.000000 -8.152455
v -0.490393 8.000000 -8.152455
v -0.461939 0.000000 -8.441342
v -0.461939 8.000000 -8.441342
v -0.415734 0.000000 -8.527786
v -0.415734 8.000000 -8.527786
v -0.353553 0.000000 -8.603554
v -0.353553 8.000000 -8.603554
v -0.277784 0.000000 -8.665735
v -0.277784 8.000000 -8.665735
v -0.191341 0.000000 -8.711940
v -0.191341 8.000000 -8.711940
v -0.097544 0.000000 -8.740393
v -0.097544 8.000000 -8.740393
v 0.097545 8.009607 7.175599
v -0.000000 8.000000 -7.675600
v -0.000000 8.000000 7.175599
v -0.097545 8.009607 -7.675600
v -0.097545 8.009607 7.175599
v 0.000000 0.000000 7.250000
v 0.000000 8.000000 7.250000
v 0.097545 0.000000 7.259607
v 0.097545 8.000000 7.259607
v 0.191342 0.000000 7.288060
v 0.191342 8.000000 7.288060
v 0.277785 0.000000 7.334265
v 0.277785 8.000000 7.334265
v 0.353553 0.000000 7.396446
v 0.353553 8.000000 7.396446
v 0.415735 0.000000 7.472215
v 0.415735 8.000000 7.472215
v 0.461940 0.000000 7.558659
v 0.461940 8.000000 7.558659
v 0.490393 0.000000 7.652454
v 0.490393 8.000000 7.652454
v 0.500000 0.000000 7.750000
v 0.500000 8.000000 7.750000
v 0.490393 0.000000 7.847545
v 0.490393 8.000000 7.847545
v 0.461940 0.000000 7.941341
v 0.461940 8.000000 7.941341
v 0.415735 0.000000 8.027785
v 0.415735 8.000000 8.027785
v 0.353553 0.000000 8.103553
v 0.353553 8.000000 8.103553
v 0.277785 0.000000 8.165734
v 0.277785 8.000000 8.165734
v 0.191342 0.000000 8.211940
v 0.191342 8.000000 8.211940
v 0.097545 0.000000 8.240393
v 0.097545 8.000000 8.240393
v -0.000000 0.000000 8.250000
v -0.000000 8.000000 8.250000
v -0.097545 0.000000 8.240393
v -0.097545 8.000000 8.240393
v -0.191342 0.000000 8.211940
v -0.191342 8.000000 8.211940
v -0.277785 0.000000 8.165734
v -0.277785 8.000000 8.165734
v -0.353554 0.000000 8.103553
v -0.353554 8.000000 8.103553
v -0.415735 0.000000 8.027784
v -0.415735 8.000000 8.027784
v -0.461940 0.000000 7.941341
v -0.461940 8.000000 7.941341
v -0.490392 0.000000 7.652454
v -0.490392 8.000000 7.652454
v -0.461939 0.000000 7.558658
v -0.461939 8.000000 7.558658
v -0.415734 0.000000 7.472214
v -0.415734 8.000000 7.472214
v -0.353553 0.000000 7.396446
v -0.353553 8.000000 7.396446
v -0.277784 0.000000 7.334265
v -0.277784 8.000000 7.334265
v -0.191341 0.000000 7.288060
v -0.191341 8.000000 7.288060
v -0.097544 0.000000 7.259607
v -0.097544 8.000000 7.259607
v -0.097545 8.009435 7.298058
v -0.097545 8.007758 7.388199
v -0.097545 8.004648 7.438179
v -0.097545 8.006038 7.438971
v -0.000000 7.999827 7.297951
v -0.000000 7.998160 7.387749
v -0.000000 7.995116 7.436962
v -0.000000 7.996793 7.436353
v 0.097545 8.009435 7.298058
v 0.097545 8.007758 7.388197
v 0.097545 8.004647 7.438179
v 0.097545 8.006037 7.438971
v -0.097545 8.006040 -7.938968
v -0.097545 8.004648 -7.938176
v -0.097545 8.007759 -7.888196
v -0.097545 8.009436 -7.798057
v 0.000000 7.996795 -7.936352
v -0.000000 7.995118 -7.936961
v -0.000000 7.998162 -7.887749
v -0.000000 7.999828 -7.797952
v -0.700000 7.800000 -8.250001
v -0.700000 0.200000 -8.250001
v -0.690392 7.800000 -8.347546
v -0.690392 0.200000 -8.347546
v -0.690393 7.800000 7.847545
v -0.690393 0.200000 7.847545
v -0.700000 7.800000 7.749999
v -0.700000 0.200000 7.749999
v -4.300000 7.800000 7.749999
v -4.300000 0.200000 7.749999
v -4.290393 0.200000 7.847545
v -4.290393 7.800000 7.847545
v -4.290393 7.800000 -8.347546
v -4.290393 0.200000 -8.347546
v -4.300000 0.200000 -8.250001
v -4.300000 7.800000 -8.250001
v -4.600000 7.800000 7.549999
v -4.600000 0.200000 7.549999
v -4.590393 8.000000 7.847545
v -4.590393 0.000000 7.847545
v -4.590393 8.000000 -8.347546
v -4.590393 0.000000 -8.347546
v -4.600000 7.800000 -8.050001
v -4.600000 0.200000 -8.050000
v -0.500000 8.000000 -8.250001
v -0.500000 0.000000 -8.250001
v -0.490392 8.000000 -8.347546
v -0.490392 0.000000 -8.347546
v -0.490393 8.000000 7.847545
v -0.490393 0.000000 7.847545
v -0.500000 8.000000 7.749999
v -0.500000 0.000000 7.749999
v -4.500000 7.800000 -8.050001
v -4.490393 8.000000 7.847545
v -4.500000 7.800000 7.549999
v -4.500000 0.200000 -8.050000
v -4.490393 8.000000 -8.347546
v -4.490393 0.000000 -8.347546
v -4.500000 0.200000 7.549999
v -4.490393 0.000000 7.847545
v -4.500000 8.000000 7.749999
v -4.500000 0.000000 7.749999
v -4.500000 8.000000 -8.250001
v -4.500000 0.000000 -8.250001
v -4.600000 8.000000 7.749999
v -4.600000 0.000000 7.749999
v -4.600000 8.000000 -8.250001
v -4.600000 0.000000 -8.250001
vt 1.008539 1.189192
vt 1.004341 -0.027816
vt 0.406243 -0.027816
vt 0.404502 1.189192
vt 0.307866 0.279486
vt 1.618544 0.284179
vt 1.621880 0.930724
vt 0.302613 0.936590
vt -0.689873 0.326645
vt -0.689873 1.588170
vt 1.714349 1.588170
vt 1.714349 0.326645
vt 1.000000 0.500000
vt 1.000000 1.000000
vt 0.968750 1.000000
vt 0.968750 0.500000
vt 0.937500 1.000000
vt 0.937500 0.500000
vt 0.906250 1.000000
vt 0.906250 0.500000
vt 0.875000 1.000000
vt 0.875000 0.500000
vt 0.843750 1.000000
vt 0.843750 0.500000
vt 0.812500 1.000000
vt 0.812500 0.500000
vt 0.781250 1.000000
vt 0.781250 0.500000
vt 0.750000 1.000000
vt 0.750000 0.500000
vt 0.718750 1.000000
vt 0.718750 0.500000
vt 0.687500 1.000000
vt 0.687500 0.500000
vt 0.656250 1.000000
vt 0.656250 0.500000
vt 0.625000 1.000000
vt 0.625000 0.500000
vt 0.593750 1.000000
vt 0.593750 0.500000
vt 0.562500 1.000000
vt 0.562500 0.500000
vt 0.531250 1.000000
vt 0.531250 0.500000
vt 0.500000 1.000000
vt 0.500000 0.500000
vt 0.468750 1.000000
vt 0.468750 0.500000
vt 0.437500 1.000000
vt 0.437500 0.500000
vt 0.406250 1.000000
vt 0.406250 0.500000
vt 0.375000 1.000000
vt 0.375000 0.500000
vt 0.343750 1.000000
vt 0.343750 0.500000
vt 0.312500 1.000000
vt 0.312500 0.500000
vt 0.281250 1.000000
vt 0.281250 0.500000
vt 0.250000 1.000000
vt 0.250000 0.500000
vt 0.218750 0.500000
vt 0.218750 1.000000
vt 0.187500 1.000000
vt 0.187500 0.500000
vt 0.156250 1.000000
vt 0.156250 0.500000
vt 0.125000 1.000000
vt 0.125000 0.500000
vt 0.093750 1.000000
vt 0.093750 0.500000
vt 0.062500 1.000000
vt 0.062500 0.500000
vt 0.031250 1.000000
vt 0.031250 0.500000
vt 0.000000 1.000000
vt 0.000000 0.500000
vt 0.750000 0.490000
vt 0.796822 0.485388
vt 0.841844 0.471731
vt 0.883337 0.449553
vt 0.919706 0.419706
vt 0.949553 0.383337
vt 0.971731 0.341844
vt 0.985388 0.296822
vt 0.990000 0.250000
vt 0.985388 0.203178
vt 0.971731 0.158156
vt 0.949553 0.116663
vt 0.919706 0.080294
vt 0.883337 0.050447
vt 0.841844 0.028269
vt 0.796822 0.014612
vt 0.750000 0.010000
vt 0.703178 0.014612
vt 0.658156 0.028269
vt 0.616663 0.050447
vt 0.580294 0.080294
vt 0.550447 0.116663
vt 0.528269 0.158156
vt 0.514611 0.203179
vt 0.510000 0.250000
vt 0.514612 0.296822
vt 0.528269 0.341844
vt 0.550447 0.383337
vt 0.580295 0.419706
vt 0.616663 0.449553
vt 0.658156 0.471731
vt 0.703179 0.485389
vt 1.000000 0.500000
vt 1.000000 1.000000
vt 0.968750 1.000000
vt 0.968750 0.500000
vt 0.937500 1.000000
vt 0.937500 0.500000
vt 0.906250 1.000000
vt 0.906250 0.500000
vt 0.875000 1.000000
vt 0.875000 0.500000
vt 0.843750 1.000000
vt 0.843750 0.500000
vt 0.812500 1.000000
vt 0.812500 0.500000
vt 0.781250 1.000000
vt 0.781250 0.500000
vt 0.750000 1.000000
vt 0.750000 0.500000
vt 0.718750 1.000000
vt 0.718750 0.500000
vt 0.687500 1.000000
vt 0.687500 0.500000
vt 0.656250 1.000000
vt 0.656250 0.500000
vt 0.625000 1.000000
vt 0.625000 0.500000
vt 0.593750 1.000000
vt 0.593750 0.500000
vt 0.562500 1.000000
vt 0.562500 0.500000
vt 0.531250 1.000000
vt 0.531250 0.500000
vt 0.500000 1.000000
vt 0.500000 0.500000
vt 0.468750 1.000000
vt 0.468750 0.500000
vt 0.437500 1.000000
vt 0.437500 0.500000
vt 0.406250 1.000000
vt 0.406250 0.500000
vt 0.375000 1.000000
vt 0.375000 0.500000
vt 0.343750 1.000000
vt 0.343750 0.500000
vt 0.312500 1.000000
vt 0.312500 0.500000
vt 0.281250 1.000000
vt 0.281250 0.500000
vt 0.250000 0.500000
vt 0.250000 1.000000
vt 0.218750 1.000000
vt 0.218750 0.500000
vt 0.187500 1.000000
vt 0.187500 0.500000
vt 0.156250 1.000000
vt 0.156250 0.500000
vt 0.125000 1.000000
vt 0.125000 0.500000
vt 0.093750 1.000000
vt 0.093750 0.500000
vt 0.062500 1.000000
vt 0.062500 0.500000
vt 0.031250 1.000000
vt 0.031250 0.500000
vt 0.000000 1.000000
vt 0.000000 0.500000
vt 0.750000 0.490000
vt 0.796822 0.485388
vt 0.841844 0.471731
vt 0.883337 0.449553
vt 0.919706 0.419706
vt 0.949553 0.383337
vt 0.971731 0.341844
vt 0.985388 0.296822
vt 0.990000 0.250000
vt 0.985388 0.203178
vt 0.971731 0.158156
vt 0.949553 0.116663
vt 0.919706 0.080294
vt 0.883337 0.050447
vt 0.841844 0.028269
vt 0.796822 0.014612
vt 0.750000 0.010000
vt 0.703178 0.014612
vt 0.658156 0.028269
vt 0.616663 0.050447
vt 0.580294 0.080294
vt 0.550447 0.116663
vt 0.528269 0.158156
vt 0.514611 0.203179
vt 0.510000 0.250000
vt 0.514612 0.296822
vt 0.528269 0.341844
vt 0.550447 0.383337
vt 0.580295 0.419706
vt 0.616663 0.449553
vt 0.658156 0.471731
vt 0.703179 0.485389
vt 0.318182 1.000000
vt 0.309659 1.000000
vt 0.349432 1.000000
vt 0.363636 1.000000
vt 0.389205 1.000000
vt 0.409091 1.000000
vt 0.428977 1.000000
vt 0.454545 1.000000
vt 0.468750 1.000000
vt 0.500000 1.000000
vt 0.690341 1.000000
vt 0.681818 1.000000
vt 0.636364 1.000000
vt 0.650568 1.000000
vt 0.590909 1.000000
vt 0.610795 1.000000
vt 0.545455 1.000000
vt 0.571023 1.000000
vt 0.531250 1.000000
vt 0.500000 0.500000
vt 0.468750 0.500000
vt 0.468750 0.545455
vt 0.500000 0.545455
vt 0.468750 0.590909
vt 0.500000 0.590909
vt 0.468750 0.636364
vt 0.500000 0.636364
vt 0.468750 0.681818
vt 0.500000 0.681818
vt 0.218750 1.000000
vt 0.250000 1.000000
vt 0.250000 1.000000
vt 0.281250 1.000000
vt 0.510000 0.250000
vt 0.514612 0.296822
vt 0.218750 1.000000
vt 0.250000 1.000000
vt 0.514611 0.203179
vt 0.510000 0.250000
vt 0.510000 0.250000
vt 0.514612 0.296822
vt 0.514611 0.203179
vt 0.281250 1.000000
vt 0.250000 1.000000
vt 0.510000 0.250000
vt 0.281250 0.500000
vt 0.281250 0.500000
vt 0.218750 0.500000
vt 0.218750 0.500000
vt 0.250000 0.987500
vt 0.250000 0.512500
vt 0.218750 0.512500
vt 0.218750 0.987500
vt 0.281250 0.987500
vt 0.281250 0.512500
vt 0.250000 0.512500
vt 0.250000 0.987500
vt 0.250000 0.987500
vt 0.281250 0.987500
vt 0.250000 0.987500
vt 0.250000 0.512500
vt 0.250000 0.500000
vt 0.218750 0.987500
vt 0.218750 0.512500
vt 0.250000 0.512500
vt 0.250000 0.500000
vt 0.281250 0.512500
vt 0.250000 0.512500
vt 0.250000 0.987500
vt 0.250000 0.987500
vt 0.250000 0.512500
vt 0.256500 0.981250
vt 0.503500 0.268750
vt 0.503500 0.268750
vt 0.256500 0.981250
vn 0.0000 0.0000 -1.0000
vn 0.0000 0.0000 1.0000
vn 1.0000 0.0000 0.0000
vn 0.0980 0.0000 -0.9952
vn 0.2903 0.0000 -0.9569
vn 0.4714 -0.0000 -0.8819
vn 0.6344 -0.0000 -0.7730
vn 0.7730 -0.0000 -0.6344
vn 0.8819 -0.0000 -0.4714
vn 0.9569 -0.0000 -0.2903
vn 0.9952 -0.0000 -0.0980
vn 0.9952 0.0000 0.0980
vn 0.9569 0.0000 0.2903
vn 0.8819 -0.0000 0.4714
vn 0.7730 -0.0000 0.6344
vn 0.6344 -0.0000 0.7730
vn 0.4714 -0.0000 0.8819
vn 0.2903 0.0000 0.9569
vn 0.0980 0.0000 0.9952
vn -0.0980 0.0000 0.9952
vn -0.2903 0.0000 0.9569
vn -0.4714 0.0000 0.8819
vn -0.6344 0.0000 0.7730
vn -0.7730 0.0000 0.6344
vn -0.8819 0.0000 0.4714
vn -0.9569 0.0000 0.2903
vn -0.9952 0.0000 0.0980
vn -0.9569 0.0000 -0.2903
vn -0.8819 0.0000 -0.4714
vn -0.7730 0.0000 -0.6344
vn -0.6344 0.0000 -0.7730
vn -0.4714 0.0000 -0.8819
vn -0.2903 0.0000 -0.9569
vn -0.0980 0.0000 -0.9952
vn 0.0000 -1.0000 0.0000
vn -0.9952 0.0000 -0.0980
vn 0.0139 -0.0593 0.9981
vn -0.0979 -0.9933 -0.0616
vn -0.0980 -0.9950 -0.0185
vn -0.0980 -0.9952 -0.0014
vn -0.0139 -0.0593 0.9981
vn 0.0979 -0.9933 -0.0616
vn 0.0980 -0.9950 -0.0185
vn 0.0980 -0.9952 -0.0014
vn -0.0980 -0.9952 0.0014
vn -0.0980 -0.9950 0.0185
vn -0.0979 -0.9933 0.0616
vn 0.0139 -0.0596 -0.9981
vn 0.0000 1.0000 0.0000
vn -1.0000 0.0000 0.0000
usemtl Net
s off
f 152/1/1 153/2/1 155/3/1 154/4/1
f 147/5/2 146/6/2 161/7/2 160/8/2
f 181/9/3 178/10/3 180/11/3 184/12/3
usemtl Material.001
f 1/13/4 2/14/4 4/15/4 3/16/4
f 3/16/5 4/15/5 6/17/5 5/18/5
f 5/18/6 6/17/6 8/19/6 7/20/6
f 7/20/7 8/19/7 10/21/7 9/22/7
f 9/22/8 10/21/8 12/23/8 11/24/8
f 11/24/9 12/23/9 14/25/9 13/26/9
f 13/26/10 14/25/10 16/27/10 15/28/10
f 15/28/11 16/27/11 18/29/11 17/30/11
f 17/30/12 18/29/12 20/31/12 19/32/12
f 19/32/13 20/31/13 22/33/13 21/34/13
f 21/34/14 22/33/14 24/35/14 23/36/14
f 23/36/15 24/35/15 26/37/15 25/38/15
f 25/38/16 26/37/16 28/39/16 27/40/16
f 27/40/17 28/39/17 30/41/17 29/42/17
f 29/42/18 30/41/18 32/43/18 31/44/18
f 31/44/19 32/43/19 34/45/19 33/46/19
f 33/46/20 34/45/20 36/47/20 35/48/20
f 35/48/21 36/47/21 38/49/21 37/50/21
f 37/50/22 38/49/22 40/51/22 39/52/22
f 39/52/23 40/51/23 42/53/23 41/54/23
f 41/54/24 42/53/24 44/55/24 43/56/24
f 43/56/25 44/55/25 46/57/25 45/58/25
f 45/58/26 46/57/26 48/59/26 47/60/26
f 47/60/27 48/59/27 170/61/27 171/62/27
f 173/63/28 172/64/28 50/65/28 49/66/28
f 49/66/29 50/65/29 52/67/29 51/68/29
f 51/68/30 52/67/30 54/69/30 53/70/30
f 53/70/31 54/69/31 56/71/31 55/72/31
f 55/72/32 56/71/32 58/73/32 57/74/32
f 57/74/33 58/73/33 60/75/33 59/76/33
f 59/76/34 60/75/34 2/77/34 1/78/34
f 1/79/35 3/80/35 5/81/35 7/82/35 9/83/35 11/84/35 13/85/35 15/86/35 17/87/35 19/88/35 21/89/35 23/90/35 25/91/35 27/92/35 29/93/35 31/94/35 33/95/35 35/96/35 37/97/35 39/98/35 41/99/35 43/100/35 45/101/35 47/102/35 171/103/35 173/104/35 49/105/35 51/106/35 53/107/35 55/108/35 57/109/35 59/110/35
f 66/111/4 67/112/4 69/113/4 68/114/4
f 68/114/5 69/113/5 71/115/5 70/116/5
f 70/116/6 71/115/6 73/117/6 72/118/6
f 72/118/7 73/117/7 75/119/7 74/120/7
f 74/120/8 75/119/8 77/121/8 76/122/8
f 76/122/9 77/121/9 79/123/9 78/124/9
f 78/124/10 79/123/10 81/125/10 80/126/10
f 80/126/11 81/125/11 83/127/11 82/128/11
f 82/128/12 83/127/12 85/129/12 84/130/12
f 84/130/13 85/129/13 87/131/13 86/132/13
f 86/132/14 87/131/14 89/133/14 88/134/14
f 88/134/15 89/133/15 91/135/15 90/136/15
f 90/136/16 91/135/16 93/137/16 92/138/16
f 92/138/17 93/137/17 95/139/17 94/140/17
f 94/140/18 95/139/18 97/141/18 96/142/18
f 96/142/19 97/141/19 99/143/19 98/144/19
f 98/144/20 99/143/20 101/145/20 100/146/20
f 100/146/21 101/145/21 103/147/21 102/148/21
f 102/148/22 103/147/22 105/149/22 104/150/22
f 104/150/23 105/149/23 107/151/23 106/152/23
f 106/152/24 107/151/24 109/153/24 108/154/24
f 108/154/25 109/153/25 111/155/25 110/156/25
f 110/156/26 111/155/26 174/157/26 175/158/26
f 177/159/36 176/160/36 113/161/36 112/162/36
f 112/162/28 113/161/28 115/163/28 114/164/28
f 114/164/29 115/163/29 117/165/29 116/166/29
f 116/166/30 117/165/30 119/167/30 118/168/30
f 118/168/31 119/167/31 121/169/31 120/170/31
f 120/170/32 121/169/32 123/171/32 122/172/32
f 122/172/33 123/171/33 125/173/33 124/174/33
f 124/174/34 125/173/34 67/175/34 66/176/34
f 66/177/35 68/178/35 70/179/35 72/180/35 74/181/35 76/182/35 78/183/35 80/184/35 82/185/35 84/186/35 86/187/35 88/188/35 90/189/35 92/190/35 94/191/35 96/192/35 98/193/35 100/194/35 102/195/35 104/196/35 106/197/35 108/198/35 110/199/35 175/200/35 177/201/35 112/202/35 114/203/35 116/204/35 118/205/35 120/206/35 122/207/35 124/208/35
f 133/209/37 129/210/37 128/211/37 132/212/37
f 132/212/38 128/211/38 127/213/38 131/214/38
f 131/214/39 127/213/39 126/215/39 130/216/39
f 130/216/40 126/215/40 65/217/40 63/218/40
f 137/219/41 133/220/41 132/221/41 136/222/41
f 136/222/42 132/221/42 131/223/42 135/224/42
f 135/224/43 131/223/43 130/225/43 134/226/43
f 134/226/44 130/225/44 63/218/44 61/227/44
f 62/228/45 64/229/45 141/230/45 145/231/45
f 145/231/46 141/230/46 140/232/46 144/233/46
f 144/233/47 140/232/47 139/234/47 143/235/47
f 143/235/48 139/234/48 138/236/48 142/237/48
f 170/61/49 172/64/49 182/238/49 188/239/49
f 174/157/49 176/160/49 186/240/49 179/241/49
f 173/104/35 171/103/35 189/242/35 183/243/35
f 188/239/49 182/238/49 166/244/49 192/245/49
f 177/201/35 175/200/35 185/246/35 187/247/35
f 193/248/36 192/245/36 166/244/36 167/249/36
f 165/250/27 164/251/27 190/252/27 191/253/27
f 185/254/2 179/241/2 164/251/2 165/255/2
f 179/241/49 186/240/49 190/252/49 164/251/49
f 183/243/35 189/242/35 193/248/35 167/249/35
f 182/238/1 183/256/1 167/257/1 166/244/1
f 187/247/35 185/246/35 165/250/35 191/253/35
f 188/239/49 192/245/49 190/252/49 186/240/49
f 193/248/35 189/242/35 187/247/35 191/253/35
f 146/258/2 147/259/2 171/62/2 170/61/2
f 149/260/1 148/261/1 172/64/1 173/63/1
f 150/262/2 151/263/2 175/158/2 174/157/2
f 153/264/1 152/265/1 176/160/1 177/159/1
f 161/266/2 146/258/2 170/61/2 188/239/2
f 157/267/2 150/262/2 174/157/2 179/241/2
f 152/265/1 154/268/1 186/240/1 176/160/1
f 147/259/2 160/269/2 189/270/2 171/62/2
f 148/261/1 158/271/1 182/238/1 172/64/1
f 159/272/1 149/260/1 173/63/1 183/256/1
f 155/273/1 153/264/1 177/159/1 187/274/1
f 151/263/2 156/275/2 185/254/2 175/158/2
f 154/268/1 155/273/1 187/274/1 186/240/1
f 156/275/2 157/267/2 179/241/2 185/254/2
f 158/271/1 159/272/1 183/256/1 182/238/1
f 160/269/2 161/266/2 188/239/2 189/270/2
f 184/276/3 180/277/3 186/240/3 187/274/3
f 178/278/3 181/279/3 189/270/3 188/239/3
f 162/280/50 163/281/50 191/253/50 190/252/50
f 169/282/50 168/283/50 192/245/50 193/248/50
f 180/277/3 178/278/3 188/239/3 186/240/3
f 168/283/50 162/280/50 190/252/50 192/245/50
f 163/281/50 169/282/50 193/248/50 191/253/50
f 181/279/3 184/276/3 187/274/3 189/270/3
